<mxfile host="app.diagrams.net" modified="2023-05-07T16:10:25.096Z" agent="Mozilla/5.0 (Windows NT 10.0; Win64; x64) AppleWebKit/537.36 (KHTML, like Gecko) Chrome/112.0.0.0 Safari/537.36" etag="V5YM8MjKzl4Vnxz2P2wg" version="21.1.4" type="device">
  <diagram name="Page-1" id="O8Ce2MENMPBfFny5wWhk">
    <mxGraphModel dx="1434" dy="796" grid="1" gridSize="10" guides="1" tooltips="1" connect="1" arrows="1" fold="1" page="1" pageScale="1" pageWidth="850" pageHeight="1100" math="0" shadow="0">
      <root>
        <mxCell id="0" />
        <mxCell id="1" parent="0" />
        <mxCell id="CHmzksN38delY4zF9GZL-2" value="User&lt;br&gt;" style="shape=umlActor;verticalLabelPosition=bottom;verticalAlign=top;html=1;outlineConnect=0;" vertex="1" parent="1">
          <mxGeometry x="50" y="40" width="30" height="60" as="geometry" />
        </mxCell>
        <mxCell id="CHmzksN38delY4zF9GZL-3" value="" style="line;strokeWidth=4;direction=south;html=1;perimeter=backbonePerimeter;points=[];outlineConnect=0;" vertex="1" parent="1">
          <mxGeometry x="50" y="130" width="10" height="360" as="geometry" />
        </mxCell>
        <mxCell id="CHmzksN38delY4zF9GZL-6" value="" style="line;strokeWidth=4;direction=south;html=1;perimeter=backbonePerimeter;points=[];outlineConnect=0;" vertex="1" parent="1">
          <mxGeometry x="280" y="150" width="10" height="310" as="geometry" />
        </mxCell>
        <mxCell id="CHmzksN38delY4zF9GZL-7" value="Login page" style="rounded=1;whiteSpace=wrap;html=1;" vertex="1" parent="1">
          <mxGeometry x="235" y="60" width="120" height="60" as="geometry" />
        </mxCell>
        <mxCell id="CHmzksN38delY4zF9GZL-8" value="" style="line;strokeWidth=4;direction=south;html=1;perimeter=backbonePerimeter;points=[];outlineConnect=0;" vertex="1" parent="1">
          <mxGeometry x="545" y="180" width="10" height="230" as="geometry" />
        </mxCell>
        <mxCell id="CHmzksN38delY4zF9GZL-9" value="Server" style="rounded=1;whiteSpace=wrap;html=1;" vertex="1" parent="1">
          <mxGeometry x="490" y="60" width="120" height="60" as="geometry" />
        </mxCell>
        <mxCell id="CHmzksN38delY4zF9GZL-10" value="" style="endArrow=none;dashed=1;html=1;dashPattern=1 3;strokeWidth=2;rounded=0;entryX=0.5;entryY=1;entryDx=0;entryDy=0;" edge="1" parent="1" source="CHmzksN38delY4zF9GZL-6" target="CHmzksN38delY4zF9GZL-7">
          <mxGeometry width="50" height="50" relative="1" as="geometry">
            <mxPoint x="400" y="300" as="sourcePoint" />
            <mxPoint x="450" y="250" as="targetPoint" />
          </mxGeometry>
        </mxCell>
        <mxCell id="CHmzksN38delY4zF9GZL-11" value="" style="endArrow=none;dashed=1;html=1;dashPattern=1 3;strokeWidth=2;rounded=0;" edge="1" parent="1">
          <mxGeometry width="50" height="50" relative="1" as="geometry">
            <mxPoint x="550.5" y="170" as="sourcePoint" />
            <mxPoint x="550" y="130" as="targetPoint" />
          </mxGeometry>
        </mxCell>
        <mxCell id="CHmzksN38delY4zF9GZL-13" value="" style="endArrow=classic;html=1;rounded=0;" edge="1" parent="1" source="CHmzksN38delY4zF9GZL-3" target="CHmzksN38delY4zF9GZL-6">
          <mxGeometry width="50" height="50" relative="1" as="geometry">
            <mxPoint x="90" y="200" as="sourcePoint" />
            <mxPoint x="290" y="160" as="targetPoint" />
            <Array as="points">
              <mxPoint x="180" y="190" />
            </Array>
          </mxGeometry>
        </mxCell>
        <mxCell id="CHmzksN38delY4zF9GZL-14" value="" style="endArrow=classic;html=1;rounded=0;" edge="1" parent="1" source="CHmzksN38delY4zF9GZL-6" target="CHmzksN38delY4zF9GZL-8">
          <mxGeometry width="50" height="50" relative="1" as="geometry">
            <mxPoint x="76" y="170" as="sourcePoint" />
            <mxPoint x="300" y="170" as="targetPoint" />
            <Array as="points">
              <mxPoint x="490" y="190" />
            </Array>
          </mxGeometry>
        </mxCell>
        <mxCell id="CHmzksN38delY4zF9GZL-17" value="" style="endArrow=classic;html=1;rounded=0;dashed=1;" edge="1" parent="1" source="CHmzksN38delY4zF9GZL-8" target="CHmzksN38delY4zF9GZL-6">
          <mxGeometry width="50" height="50" relative="1" as="geometry">
            <mxPoint x="400" y="300" as="sourcePoint" />
            <mxPoint x="450" y="250" as="targetPoint" />
            <Array as="points">
              <mxPoint x="420" y="210" />
            </Array>
          </mxGeometry>
        </mxCell>
        <mxCell id="CHmzksN38delY4zF9GZL-18" value="" style="endArrow=classic;html=1;rounded=0;dashed=1;" edge="1" parent="1" source="CHmzksN38delY4zF9GZL-44" target="CHmzksN38delY4zF9GZL-6">
          <mxGeometry width="50" height="50" relative="1" as="geometry">
            <mxPoint x="558" y="240" as="sourcePoint" />
            <mxPoint x="306" y="240" as="targetPoint" />
            <Array as="points" />
          </mxGeometry>
        </mxCell>
        <mxCell id="CHmzksN38delY4zF9GZL-19" value="" style="endArrow=classic;html=1;rounded=0;" edge="1" parent="1">
          <mxGeometry width="50" height="50" relative="1" as="geometry">
            <mxPoint x="300" y="249.5" as="sourcePoint" />
            <mxPoint x="552" y="249.5" as="targetPoint" />
            <Array as="points">
              <mxPoint x="494" y="249.5" />
            </Array>
          </mxGeometry>
        </mxCell>
        <mxCell id="CHmzksN38delY4zF9GZL-20" value="" style="endArrow=classic;html=1;rounded=0;dashed=1;" edge="1" parent="1">
          <mxGeometry width="50" height="50" relative="1" as="geometry">
            <mxPoint x="542" y="300.5" as="sourcePoint" />
            <mxPoint x="290" y="300.5" as="targetPoint" />
            <Array as="points" />
          </mxGeometry>
        </mxCell>
        <mxCell id="CHmzksN38delY4zF9GZL-21" value="" style="endArrow=classic;html=1;rounded=0;" edge="1" parent="1">
          <mxGeometry width="50" height="50" relative="1" as="geometry">
            <mxPoint x="294" y="290" as="sourcePoint" />
            <mxPoint x="546" y="290" as="targetPoint" />
            <Array as="points">
              <mxPoint x="488" y="290" />
            </Array>
          </mxGeometry>
        </mxCell>
        <mxCell id="CHmzksN38delY4zF9GZL-22" value="user Logging with credentials" style="text;html=1;strokeColor=none;fillColor=none;align=center;verticalAlign=middle;whiteSpace=wrap;rounded=0;" vertex="1" parent="1">
          <mxGeometry x="140" y="140" width="60" height="30" as="geometry" />
        </mxCell>
        <mxCell id="CHmzksN38delY4zF9GZL-27" value="" style="endArrow=classic;html=1;rounded=0;dashed=1;" edge="1" parent="1">
          <mxGeometry width="50" height="50" relative="1" as="geometry">
            <mxPoint x="302" y="210" as="sourcePoint" />
            <mxPoint x="70" y="210" as="targetPoint" />
            <Array as="points">
              <mxPoint x="174" y="210" />
            </Array>
          </mxGeometry>
        </mxCell>
        <mxCell id="CHmzksN38delY4zF9GZL-30" value="" style="endArrow=classic;html=1;rounded=0;dashed=1;" edge="1" parent="1">
          <mxGeometry width="50" height="50" relative="1" as="geometry">
            <mxPoint x="312" y="260" as="sourcePoint" />
            <mxPoint x="70" y="260" as="targetPoint" />
            <Array as="points">
              <mxPoint x="184" y="260" />
            </Array>
          </mxGeometry>
        </mxCell>
        <mxCell id="CHmzksN38delY4zF9GZL-32" value="" style="endArrow=classic;html=1;rounded=0;dashed=1;" edge="1" parent="1">
          <mxGeometry width="50" height="50" relative="1" as="geometry">
            <mxPoint x="290" y="311" as="sourcePoint" />
            <mxPoint x="60" y="310.5" as="targetPoint" />
            <Array as="points" />
          </mxGeometry>
        </mxCell>
        <mxCell id="CHmzksN38delY4zF9GZL-35" value="first attempt verify" style="text;html=1;strokeColor=none;fillColor=none;align=center;verticalAlign=middle;whiteSpace=wrap;rounded=0;" vertex="1" parent="1">
          <mxGeometry x="355" y="150" width="105" height="30" as="geometry" />
        </mxCell>
        <mxCell id="CHmzksN38delY4zF9GZL-37" value="secondt attempt verify" style="text;html=1;strokeColor=none;fillColor=none;align=center;verticalAlign=middle;whiteSpace=wrap;rounded=0;" vertex="1" parent="1">
          <mxGeometry x="332.5" y="230" width="135" height="30" as="geometry" />
        </mxCell>
        <mxCell id="CHmzksN38delY4zF9GZL-38" value="last attempt verify" style="text;html=1;strokeColor=none;fillColor=none;align=center;verticalAlign=middle;whiteSpace=wrap;rounded=0;" vertex="1" parent="1">
          <mxGeometry x="340" y="270" width="120" height="20" as="geometry" />
        </mxCell>
        <mxCell id="CHmzksN38delY4zF9GZL-41" value="account locked" style="text;html=1;strokeColor=none;fillColor=none;align=center;verticalAlign=middle;whiteSpace=wrap;rounded=0;" vertex="1" parent="1">
          <mxGeometry x="100" y="290" width="120" height="20" as="geometry" />
        </mxCell>
        <mxCell id="CHmzksN38delY4zF9GZL-42" value="wrong credentials locking account" style="text;html=1;strokeColor=none;fillColor=none;align=center;verticalAlign=middle;whiteSpace=wrap;rounded=0;" vertex="1" parent="1">
          <mxGeometry x="347.5" y="310" width="120" height="20" as="geometry" />
        </mxCell>
        <mxCell id="CHmzksN38delY4zF9GZL-43" value="wrong credentials" style="text;html=1;strokeColor=none;fillColor=none;align=center;verticalAlign=middle;whiteSpace=wrap;rounded=0;" vertex="1" parent="1">
          <mxGeometry x="332.5" y="210" width="117.5" height="20" as="geometry" />
        </mxCell>
        <mxCell id="CHmzksN38delY4zF9GZL-45" value="" style="endArrow=classic;html=1;rounded=0;dashed=1;" edge="1" parent="1" source="CHmzksN38delY4zF9GZL-8" target="CHmzksN38delY4zF9GZL-44">
          <mxGeometry width="50" height="50" relative="1" as="geometry">
            <mxPoint x="548" y="260" as="sourcePoint" />
            <mxPoint x="296" y="260" as="targetPoint" />
            <Array as="points">
              <mxPoint x="420" y="260" />
            </Array>
          </mxGeometry>
        </mxCell>
        <mxCell id="CHmzksN38delY4zF9GZL-44" value="wrong credentials" style="text;html=1;strokeColor=none;fillColor=none;align=center;verticalAlign=middle;whiteSpace=wrap;rounded=0;" vertex="1" parent="1">
          <mxGeometry x="342.5" y="250" width="117.5" height="20" as="geometry" />
        </mxCell>
        <mxCell id="CHmzksN38delY4zF9GZL-46" value="try again" style="text;html=1;strokeColor=none;fillColor=none;align=center;verticalAlign=middle;whiteSpace=wrap;rounded=0;" vertex="1" parent="1">
          <mxGeometry x="110" y="210" width="120" height="20" as="geometry" />
        </mxCell>
        <mxCell id="CHmzksN38delY4zF9GZL-47" value="try again" style="text;html=1;strokeColor=none;fillColor=none;align=center;verticalAlign=middle;whiteSpace=wrap;rounded=0;" vertex="1" parent="1">
          <mxGeometry x="115" y="260" width="120" height="20" as="geometry" />
        </mxCell>
        <mxCell id="CHmzksN38delY4zF9GZL-49" value="" style="endArrow=classic;html=1;rounded=0;" edge="1" parent="1">
          <mxGeometry width="50" height="50" relative="1" as="geometry">
            <mxPoint x="56.5" y="250" as="sourcePoint" />
            <mxPoint x="283.5" y="250" as="targetPoint" />
            <Array as="points">
              <mxPoint x="170.5" y="250" />
            </Array>
          </mxGeometry>
        </mxCell>
        <mxCell id="CHmzksN38delY4zF9GZL-51" value="" style="endArrow=classic;html=1;rounded=0;" edge="1" parent="1">
          <mxGeometry width="50" height="50" relative="1" as="geometry">
            <mxPoint x="63" y="290" as="sourcePoint" />
            <mxPoint x="290" y="290" as="targetPoint" />
            <Array as="points">
              <mxPoint x="177" y="290" />
            </Array>
          </mxGeometry>
        </mxCell>
      </root>
    </mxGraphModel>
  </diagram>
</mxfile>
